<?xml version="1.0" encoding="UTF-8"?><svg id="Layer_1" xmlns="http://www.w3.org/2000/svg" viewBox="0 0 641.38 144.14"><defs><style>.cls-1{fill:#d40001;}</style></defs><path class="cls-1" d="M552.22,92.86c-3.81,6.6-8.69,12.28-14.63,17.05-2.03,1.53-4.21,2.82-6.53,3.87-2.9.85-6.17,2.66-9.31,1.45-4.01-1.21-6.38-3.87-7.14-7.98-1.09-12.09,6.17-22.01,12.09-30.96,3.1-4.04,6.69-7.59,10.77-10.65,0-.08.04-.12.12-.12,4.96-3.27,10.16-7.14,16.69-5.08,2.4.58,4.41,2.23,5.44,4.48,2.63,10.67-2.57,19.61-7.53,27.96l.02-.02h0ZM304.12,71.83c-3.35,14.56-10.55,26.86-21.63,36.89-.47.33-.91.7-1.33,1.09-4.5,4.22-9.83,6.25-16,6.08-1.96-.48-3.61-1.47-4.96-2.98-1.35-1.5-2.15-3.25-2.42-5.25-.73-14.63,8.83-26.25,16.93-35.8,1.91-2.26,4.05-4.27,6.41-6.05,6.41-4.72,15.24-8.1,21.53-.85,1.54,1.93,2.08,4.48,1.45,6.87h0ZM641.1,100.38l-7.14-7.62c-.58-.39-1.21-.5-1.88-.33-.68.17-1.18.56-1.51,1.18-2.51,3.37-5.35,6.49-8.46,9.31-4.83,5.14-10.76,8.04-17.78,8.71-1.67-.92-2.24-2.29-1.69-4.11,6.9-17.05,13.31-34.72,20.08-51.89,1.06-2.21,1.3-4.51.73-6.9-1.01-2.59-2.9-3.84-5.68-3.75-6.73,1.29-13.58,1.86-20.42,1.69-6.05,0-11.73-2.78-17.66-1.69-5.32,1.45-6.17,7.98-9.8,10.64-4.94-3.89-10.34-6.96-16.22-9.19-5.27-1.41-10.63-2.18-16.09-2.3-10.65-.34-20.89,1.57-30.71,5.7-9.82,4.14-18.33,10.14-25.53,17.99-6.52,8.36-12,17.35-16.45,26.97-5.32,3.51-10.89,8.34-16.69,11.61-4.12,2.3-9.92,4.96-12.46,2.9-1.08-.81-1.25-1.78-.49-2.9,3.87-12.46,9.31-24.55,13.31-36.89.76-3.2,2.25-6.19,4.36-8.71,5.23-.87,10.39-2.04,15.48-3.51,3.39-1.45,8.22-1.93,8.46-6.53-1.33-3.75-1.93-11.73-7.02-10.04-2.05.6-3.15,1.09-5.2,1.69-1.93.49-8.1,2.78-6.9-1.33,3.99-11.25,6.9-17.53,10.52-26.85.78-2.1.78-4.42,0-6.53-1.2-2.07-3.3-3.46-5.68-3.74-3.92-.45-7.15.84-9.68,3.87-4.23,8.16-10.44,14.33-18.62,18.51-6.89,2.6-14.02,4.51-21.29,5.68-5.44,2.4-4.36,9.68-9.07,12.58-5.56.6-9.07-.36-14.51.49-3.6-.12-3.75,3.39-4.36,5.32l-2.17,5.68c-.73,1.69-1.09,4.6,2.66,4.36h11.01c1.09.24,1.45,1.09.6,3-4.01,9.82-7.25,19.49-11.22,29.29-7.43,6.66-15.46,12.5-24.07,17.53-4.17,3.08-8.85,4.65-14.03,4.72-.87-.18-1.56-.63-2.07-1.35-.51-.72-.71-1.52-.59-2.4l20.43-53.58c1.69-4.36,2.66-7.26,0-10.04-1.33-1.64-3.02-2.24-5.08-1.8-7.02,1.46-14.12,2.06-21.29,1.8-7.02.36-16.22-5.56-21.16,1.7-2.05,2.17-2.66,6.05-5.32,7.38-4.93-3.91-10.36-6.89-16.31-8.94-5.08-1.32-10.24-2.09-15.48-2.3-9.01-.36-17.75.97-26.25,3.99-23.82,7.02-38.45,25.89-46.81,47.42-2.4,6.17-10.89,9.43-13.55,10.89-1.98,1.02-4.18,1.6-6.41,1.69,2.11-6.36,3.07-12.9,2.9-19.6-.07-5.64-1.63-10.83-4.7-15.56-3.06-4.73-7.15-8.29-12.26-10.67-2.9-1.33-4.12-1.69-6.53-2.9,9.92-2.17,20.92-6.29,26.49-15.12,5.14-7.86,5.14-18.02,0-25.88C183.53,7.25,168.05,2.17,152.33.35,107.34-2.91,63.07,16.8,32.35,46.32c-.45,1.84.12,3.3,1.69,4.36,2.54,2.05,4.6,5.93,8.22,5.68,7.86-7.07,16.33-13.32,25.4-18.75.6.12,1.57-.73,1.8.24-2.34,3.38-4.47,6.89-6.4,10.52-8.83,19.22-16.22,39.43-24.8,58.9-3.51,6.65-7.38,14.42-16.09,14.51-7.35-1.89-13.24-5.92-17.66-12.09-.47-.54-1.04-.66-1.69-.36-1.09.49-1.09,3.27-1.93,7.14-.49,3.39-1.8,6.41.12,9.19,3.34,3.8,7.13,7.07,11.39,9.81,4.26,2.73,8.81,4.83,13.65,6.28s9.8,2.21,14.85,2.27c5.06.06,10.03-.58,14.9-1.91,7.12-1.55,13.59-4.53,19.38-8.95,5.8-4.42,10.38-9.86,13.76-16.33,11.49-25.88,22.02-51.4,32.65-78.01,4.36-10.52,9.07-23.83,23.1-25.16,3.42-.18,6.68,1.54,8.46,4.48,4.2,7.02,1.09,16.09-2.9,22.23-2.48,4.2-5.88,7.46-10.18,9.76-4.3,2.3-8.89,3.32-13.77,3.06-5.44-.73-5.44,6.29-7.5,10.28-.36,1.57,0,2.4,1.09,2.9,4.84.73,12.09-.24,16.09,3.87,5.68,6.17,4.48,16.93,2.17,24.43-3.75,9.19-7.02,20.2-15.72,25.28-5.54,3.6-12.68,3.65-18.26.12-2.54-.97-4.84-4.84-6.65-3.87-2.25,3.41-4.07,7.04-5.44,10.89-.73,2.17.24,2.4,3.51,4.96,10.86,8.27,23.12,12.3,36.77,12.09,26.97.24,49.86-12.82,71-25.89l2.05-.12c1.42,4.88,3.82,9.22,7.18,13.03,3.36,3.81,7.38,6.72,12.04,8.74,20.08,9.31,42.09-.97,56.61-13.55,0-.08.04-.12.12-.12,1.8-1.33,3.51-3.75,5.68-4.11.32,5.86,2.97,11.35,7.38,15.24,12.58,9.92,30.84,4.84,43.91-.85,12.34-5.31,24.15-11.6,35.44-18.87.6-.49,2.05-1.69,2.3-.12-1.06,3.56-1.38,7.19-.97,10.89.48,3.57,1.99,6.63,4.52,9.19,2.53,2.56,5.58,4.1,9.14,4.62,20.2,3.75,36.89-7.38,53.1-15.24,3.27-1.69,4.48-2.4,6.9-3.87,4.48-2.78,7.98-5.32,12.7-8.46.64-.46,1.32-.54,2.05-.24.86,5.95,3.22,11.24,7.07,15.85,3.85,4.62,8.63,7.88,14.34,9.79,7.28,2.22,14.68,2.74,22.19,1.55,7.52-1.19,14.39-3.96,20.63-8.32,3.65-2.09,7-4.59,10.04-7.5,1.79-1.7,3.68-3.27,5.68-4.71l.49.49c.46,4.99,2.27,9.42,5.44,13.31,7.86,8.59,21.77,9.07,32.78,5.68,22.67-7.01,42.14-19.14,58.42-36.4.82-1.16.99-2.41.49-3.75h0Z"/></svg>