<?xml version="1.0" encoding="UTF-8"?><svg id="Layer_1" xmlns="http://www.w3.org/2000/svg" viewBox="0 0 419 528.78"><polyline points="259.09 332.46 272.5 318.52 387.34 434.38 419 434.38 288.04 301.9 392.08 194.65 360.97 194.65 259.09 299.74 259.09 0 234.96 0 234.96 434.38 259.09 434.38 259.09 332.46"/><path d="M413.81,526.01v-26.92c0-6.7-5.21-12.14-11.91-12.14s-12.07,4.72-12.07,12.14v26.92h-5.15v-42.62h5.15l-.08,4.13c2.72-3.71,7.42-5.5,12.14-5.5,9.41,0,17.06,7.64,17.06,17.06v26.92h-5.15M375.05,526.01h-5.14v-42.62h5.14v42.62ZM372.56,463.97c-1.71,0-3.15-1.36-3.15-3.14s1.43-3.12,3.15-3.12,3.13,1.42,3.13,3.12c0,1.78-1.34,3.14-3.13,3.14ZM339.35,486.95c-8.05,0-14.84,5.43-16.91,12.86v-.08h33.68l.16.08c-2.08-7.42-8.93-12.86-16.93-12.86ZM321.87,504.94h-.07c.14,9.5,7.99,17.13,17.55,17.13,6.86,0,12.86-3.92,15.71-9.71l4.51,2.08c-3.65,7.47-11.37,12.62-20.22,12.62-12.48,0-22.54-10.07-22.54-22.48s10.06-22.55,22.54-22.55,22.5,10.06,22.5,22.55v.36h-39.98ZM308.68,526.08h-5.14v-68.31h5.14v68.31ZM268.7,487.38l26.98,38.7h-6.21l-24.34-34.85-4.73,5.21v-.07,29.7h-5.13v-68.32h5.13v31.05l28.56-30.99h7l-27.26,29.55ZM225.21,526.01v-26.92c0-6.7-5.21-12.14-11.92-12.14s-12.07,4.72-12.07,12.14v26.92h-5.13v-42.62h5.13v4.13c2.66-3.71,7.36-5.5,12.07-5.5,9.42,0,17.08,7.64,17.08,17.06v26.92h-5.16ZM186.87,526.01h-5.14v-42.62h5.14v42.62ZM184.46,463.97c-1.78,0-3.15-1.36-3.15-3.14s1.37-3.12,3.15-3.12,3.15,1.42,3.15,3.12c0,1.78-1.43,3.14-3.15,3.14ZM154.26,528.78l-20.98-45.39h5.78l15.2,33.26,15.14-33.26h5.72l-20.85,45.39ZM128.14,526.08h-5.14v-68.31h5.14v68.31ZM90.45,487.03c-9.71,0-17.57,7.86-17.57,17.55s7.86,17.57,17.57,17.57,17.55-7.86,17.55-17.57-7.91-17.55-17.55-17.55ZM108.3,526.01v-7.71c-4.14,5.34-10.57,8.84-17.85,8.84-12.49,0-22.55-10.05-22.55-22.55s10.06-22.48,22.55-22.48c7.28,0,13.77,3.43,17.92,8.85h-.07v-7.49h5.14v42.55h-5.14ZM44.63,527.13c-19.14,0-34.62-15.78-34.62-34.82s15.49-34.9,34.62-34.9c8.35,0,15.93,2.92,21.91,7.77l-3.71,3.94c-5-4.01-11.28-6.35-18.2-6.35-16.13,0-29.19,13.35-29.19,29.55s13.06,29.47,29.19,29.47c6.92,0,13.19-2.35,18.2-6.35l3.71,3.92c-5.98,4.87-13.56,7.79-21.91,7.79Z"/><path d="M118.88,414.79c-55.14,0-96.11-48.06-96.11-101.17s41.48-100.17,96.62-100.17c26.38,0,48.63,8.55,67.8,24.1l14.66-15.18v-1.34c-23.27-19.73-51.09-28.83-81.44-28.83-68.8,0-120.4,53.62-120.4,121.41s50.59,122.42,119.89,122.42c31.32,0,61.14-11.61,84.9-32.31l-15.37-15.37c-19.73,16.55-44.5,26.43-70.54,26.43"/></svg>