<svg id="Layer_1" data-name="Layer 1" xmlns="http://www.w3.org/2000/svg" xmlns:xlink="http://www.w3.org/1999/xlink" viewBox="0 0 375.5 78.86"><defs><mask id="mask" x="0" y="0" width="375.5" height="78.86" maskUnits="userSpaceOnUse"><g transform="translate(-196.25 -344.57)"><g id="b"><path id="a" d="M196.25,344.57h375.5v78.85H196.25Z" style="fill:#fff"/></g></g></mask></defs><title>Fossil Group logo - Brandlogos.net</title><g style="mask:url(#mask)"><path d="M294.31,410.16c-8.63,0-16.63-3.15-16.63-26,0-13.49,2-26,16.63-26,8.64,0,16.63,3.15,16.63,26,0,13.38-2,26-16.63,26m0-65.46c-22.16,0-34.85,14.36-34.85,39.36,0,24.69,13,39.36,34.85,39.36s34.85-14.68,34.85-39.36c0-25.43-12.37-39.36-34.85-39.36m207.31,1.52H484.68a1.06,1.06,0,0,0-1.06,1v73.18a1,1,0,0,0,1,1h17a1,1,0,0,0,1-1h0V347.2c.11-.54-.32-1-1-1m-254.95.11H197.21a1,1,0,0,0-1,1v73.09a1,1,0,0,0,1,1h16.42a1,1,0,0,0,1-1h0V393.09H243a1.06,1.06,0,0,0,1.05-1v-11.3a1.07,1.07,0,0,0-1.05-1.08l-28.46.11V359.7h32.51a1,1,0,0,0,1-1v0l-.32-11.43a1.05,1.05,0,0,0-1.07-.87M378.94,378c-14.81-4.89-19.93-8.92-19-14.9s6.82-5.87,14.49-5.33a66.17,66.17,0,0,1,16.31,3.48.68.68,0,0,0,.64,0,1,1,0,0,0,.43-.65c.21-1.31.64-3.81,1.17-6.11.42-2.07.74-4,1-5.22a1.08,1.08,0,0,0-.75-1A81.71,81.71,0,0,0,368,344.58c-17.06.33-25.47,7.4-26.54,22.4-.53,8,4.69,18.27,17.59,22.61l2.35.76c10.66,3.59,17.69,6,16.62,12.51-.85,5-5.65,6.85-16,6.2a74.71,74.71,0,0,1-17.27-3.48.62.62,0,0,0-.75.11.91.91,0,0,0-.42.76c-.32,2.61-1.28,9.35-1.6,11.74a1.4,1.4,0,0,0,.75,1.19,117.5,117.5,0,0,0,27.6,3.27c16.42,0,25.37-7.18,26.33-21.31,1-11.5-4.91-19.23-17.7-23.36m69.6,0c-14.83-4.89-19.94-8.92-19.08-14.9s6.82-5.88,14.49-5.33a66.34,66.34,0,0,1,16.31,3.49.67.67,0,0,0,.64,0,.71.71,0,0,0,.42-.65c.22-1.42.75-4.25,1.28-6.74.32-1.85.64-3.49.85-4.46a1,1,0,0,0-.74-1.07,84.5,84.5,0,0,0-25.16-3.59c-17.05.31-25.47,7.38-26.44,22.38-.53,8.05,4.69,18.27,17.59,22.62l2.35.76c10.66,3.59,17.8,6,16.63,12.5-.85,5-5.65,6.85-16,6.2a76.13,76.13,0,0,1-17.27-3.48.79.79,0,0,0-.75.11,1.08,1.08,0,0,0-.53.77c-.22,1.63-.64,4.78-1,7.5-.21,1.74-.43,3.37-.53,4.24a1.4,1.4,0,0,0,.75,1.19A117.93,117.93,0,0,0,440,422.77c16.53,0,25.37-7.18,26.32-21.32.74-11.62-5.12-19.34-17.8-23.48m122.15,29.9h-28V347.31a1.07,1.07,0,0,0-1-1.07H524.76a1.07,1.07,0,0,0-1.06,1.08h0v73.07a1,1,0,0,0,1,1h45.46a1.06,1.06,0,0,0,1.06-1l.53-11.53a1.14,1.14,0,0,0-1.06-1" transform="translate(-196.25 -344.57)" style="fill:#242424"/></g></svg>