<svg id="Layer_1" data-name="Layer 1" xmlns="http://www.w3.org/2000/svg" viewBox="0 0 577.63 382.52"><title>H&amp;amp;M logo - Brandlogos.net</title><path id="prefix_a" data-name="prefix  a" d="M532.72,205.84c.28,13.63-1.73,31.72-3.16,44.86-7.79,71.22-20.8,129.42-21.79,202.56,34.26-89.07,63-151,100-227.21C619.53,201.79,627,206.3,636.68,202c37.61-16.79,39-6.47,34.1,14-18.25,76.12-64.89,315.75-72,352.63-2.08,10.68-13.63,6.16-16.63,2-13.39-18.58-28.47-18.86-26.78-31.22,8.4-61.53,38.6-215.87,46.47-252.24C561.65,369.81,520,473.09,498.65,531.65c-4.53,12.43-12.79,11.53-17.93,2.42-7.23-12.78-21.25-19.31-23.57-34.41-7.35-48,8.4-139.56,10.58-197.46-21.86,63.24-58.55,186.06-74.63,241.56-6.65,23-28.71,19.22-22.84-3.17,24.43-93.12,77-257.81,99.82-317,5.36-13.91,19.37-13.43,31-19.2,21-10.38,31.39-9,31.61,1.48Zm-205.12-1.32c12.63-2.18,33.19-13.32,40.29-11.6,6.65,1.6,6.11,9.47,2,20.24-12,31.75-28.64,73.45-47.67,122.64,12-1.37,18.46-1.82,18.46-1.82,17.16-2.14,20.36,6.48,15.53,15.66-3.85,7.31-8.5,2.44-24.55,26.48-9.07,13.55-23.83,17.13-32.05,18.94-19.78,52.55-41,111.19-61.57,173.68-3,9.09-11.74,7.1-14.37,3.4-9.67-13.56-16.8-14-24.32-25-.88-1.78-2.65-4.19-1.58-8.55C203.32,516,218,469.52,240.22,408.33c-28.05,6.1-58.4,12.66-70.92,15.59q-22.47,59.47-43.59,119.44c-8.62,24.53-31.06,19.78-23.18-3.39q19.29-56.53,40.26-112.46c-15.54-1.66-20.79-12.68-29.47-21.88-3.36-3.56-10.67-3.06-14.24-8-6.45-9-5.8-12.93,9.07-17.24q29.09-8.44,58.52-15.67c25.14-65.11,47.84-121,59.95-150.76,9.33-23,33.38-20.83,24.24,1.82-18.57,46-37.61,93.87-56.4,142.37,26.28-5.92,49.79-10.46,69.88-13.91q25.74-66.36,54.07-131.66c1.32-3,5.17-7.34,9.18-8Zm14.79,271.23c1.54-1.48,3-2.94,4.5-4.2,10.33-9,20.17-.07,10,15.1-2.19,3.26-4.68,6.76-7.4,10.22,1.28,3.68,2.44,6.87,3.36,9.22,5.26,13.57-8.56,17-13,5.74l-1.23-3.15c-8.41,7.48-18.13,12.2-28.53,9-17.12-5.34-21.46-29.52-5.48-48.15q7.35-8.64,15.26-16.79-1.48-4.82-2.84-9.67c-2.08-7.55-4-16.34,3.57-25.29,14.09-16.8,46.81-1.89,30.26,24a198,198,0,0,1-13.52,18.08c1.62,5.15,3.36,10.6,5.1,16ZM322,479.06c-8.42,11.6-3.43,15.73,2.82,11.89a51.25,51.25,0,0,0,5.88-4.32c-1.49-4.37-3-8.83-4.38-13.21-1.46,1.87-2.91,3.69-4.33,5.64Zm9.54-38.25c1.46-1.52,2.91-3.07,4.47-4.85,10.42-11.79-10.17-16.74-5.43,1.32.26,1,.59,2.22,1,3.52Z" transform="translate(-95.18 -192.74)" style="fill:#e50010"/></svg>