<svg id="Layer_1" data-name="Layer 1" xmlns="http://www.w3.org/2000/svg" viewBox="0 0 326.53 135.71"><title>Levi Strauss &amp;amp; Co. logo - Brandlogos.net</title><path d="M481,399.85c-19.88,0-23.51-11.64-23.51-14.53h14.4c0,1.7,2.27,3.73,4.18,4.55a12.21,12.21,0,0,0,5,.81h0c4.06,0,7.38-1,7.38-3.38,0-2.91-3.41-3.55-7.16-4.09-10.23-1.5-24.55-3.23-24.55-14.82,0-10.81,11.65-16.31,24-16.31,19.8,0,25,11.12,25,14.33H491.08a4.86,4.86,0,0,0-2.69-3.85h0a12.82,12.82,0,0,0-5.75-1.42h0c-5.47,0-8.54,1.15-8.54,3.69,0,2.07,2.77,3.1,6.76,3.79,10.4,1.81,26.36,2.44,26.36,15.25,0,6.51-5.56,16-26.22,16Zm-24.43-41L450.92,365h-2.33l2.57-6.74H446v-9h10.51Zm-32.59-5.69h18.61v45.4H423.94Zm-24.27,45.49H383.41l-24.28-45.4H381L395,380.84l.38.83.35-.83,13-27.6h13.15Zm-34.93-18.86H327.08a10.72,10.72,0,0,0,11.06,10.37l.46,0h0a11.5,11.5,0,0,0,9.95-4.81l0,0h15C358.64,396.71,349.12,400,336.14,400c-16.88,0-28.81-9.26-28.81-23.93,0-15.67,11.76-23.94,28.81-23.94,19.08,0,28.65,12.53,28.65,24.59a23.25,23.25,0,0,1-.07,3.19v-.09ZM307,398.58H264.1V353.28h19.3v33H307Zm219.85-82.33c.14.28.29.56.42.85a21.76,21.76,0,0,1,1.8,8.73V326h0v.23a22.6,22.6,0,0,1-1.85,9l.06-.15a23.19,23.19,0,0,1-4.85,7.21,21.76,21.76,0,0,1-7,4.7l-.14.06a22,22,0,0,1-8.54,1.7h-.26a22.4,22.4,0,0,1-8.73-1.75l.15.06a22.22,22.22,0,0,1-7.18-4.76,22.9,22.9,0,0,1-4.81-7.06l-.06-.15a22.26,22.26,0,0,1-1.8-8.84V326h0v-.18a22,22,0,0,1,1.86-8.87l-.06.14c.13-.29.28-.57.42-.85H220.74l31.4,135.61c65.92-43,129.27-1.67,131.82-.1H384c2.54-1.58,65.9-42.85,131.82.1l31.39-135.61ZM335.78,361.58h-.07a8.68,8.68,0,0,0-8.68,8.68h0v.4h18.23a8.59,8.59,0,0,0-9.53-9.08h0Zm157.66-21.69a18,18,0,0,0,13,5.58h.33a17.6,17.6,0,0,0,7.2-1.53l-.11,0a18.25,18.25,0,0,0,5.83-4.09h0a19,19,0,0,0,3.84-6l0-.13a20.52,20.52,0,0,0,1.41-7.53V326h0v-.15a20.22,20.22,0,0,0-1.46-7.56l0,.14a19.94,19.94,0,0,0-1.1-2.29l.05.1h-6.37a8.1,8.1,0,0,1,1,3.91v.3h0a6.45,6.45,0,0,1-2,5.24h0a8.76,8.76,0,0,1-4.87,2h0l7.48,11.7H513.4L506.28,328H502v11.4h-4.06v-23.1h-7.3a19,19,0,0,0-1,2.06l-.05.13a19.91,19.91,0,0,0-1.41,7.42V326h0v.2a20.77,20.77,0,0,0,1.46,7.67l-.05-.14a19,19,0,0,0,3.89,6.16h0Zm15.38-15.37A6.39,6.39,0,0,0,511,324l0,0a3.45,3.45,0,0,0,1.52-1.29h0a4.43,4.43,0,0,0,.58-2.2v-.26h0v-.18a4,4,0,0,0-.52-2v0a3.51,3.51,0,0,0-1.3-1.2h0a5.52,5.52,0,0,0-1.83-.57h0q-.45-.07-.89-.1H502v8.37h4.25q1.38,0,2.6-.09Z" transform="translate(-220.74 -316.15)" style="fill:#c41320"/></svg>