<?xml version="1.0" encoding="UTF-8"?>
<svg version="1.1" xmlns="http://www.w3.org/2000/svg" width="600" height="600">
<path d="M0 0 C198 0 396 0 600 0 C600 198 600 396 600 600 C402 600 204 600 0 600 C0 402 0 204 0 0 Z " fill="#FFFFFF" transform="translate(0,0)"/>
<path d="M0 0 C178.2 0 356.4 0 540 0 C540 86.79 540 173.58 540 263 C361.8 263 183.6 263 0 263 C0 176.21 0 89.42 0 0 Z " fill="#015093" transform="translate(30,168)"/>
<path d="M0 0 C2.3125 0.3046875 2.3125 0.3046875 3.3125 1.3046875 C5.13393771 16.68315525 0.15140853 31.99711711 -5.82910156 46.00463867 C-6.7311844 48.42173834 -7.2466413 50.76638462 -7.6875 53.3046875 C-6.78 53.2428125 -5.8725 53.1809375 -4.9375 53.1171875 C-1.24545569 53.33019006 -0.21041868 53.66342295 2.3125 56.3046875 C4.28127062 67.13971479 1.48252602 77.33936931 -4.109375 86.6796875 C-8.15480224 92.42158423 -13.66509219 98.54908555 -20.6875 100.3046875 C-24.89612835 100.83076604 -26.90693234 100.80771999 -30.5 98.4921875 C-33.56131535 94.0314137 -34.06542152 89.60628169 -34.6875 84.3046875 C-42.62119096 95.78374661 -48.49802279 108.07040048 -52.6875 121.3671875 C-57.8931041 137.86050808 -67.48597717 160.2773879 -82.8203125 169.6015625 C-85.20841065 170.50084632 -87.15819871 170.50976598 -89.6875 170.3046875 C-90.0175 169.9746875 -90.3475 169.6446875 -90.6875 169.3046875 C-90.46668349 155.61406406 -81.02921881 144.12273571 -72.03515625 134.453125 C-69.6875 132.3046875 -69.6875 132.3046875 -67.6875 132.3046875 C-67.419375 131.4796875 -67.15125 130.6546875 -66.875 129.8046875 C-65.84836338 126.77881113 -64.74919336 123.79224936 -63.6171875 120.8046875 C-61.58015162 115.32694396 -59.64427433 109.81149906 -57.6875 104.3046875 C-58.0175 103.9746875 -58.3475 103.6446875 -58.6875 103.3046875 C-59.62851563 103.99175781 -60.56953125 104.67882812 -61.5390625 105.38671875 C-62.79670886 106.29710455 -64.05453072 107.20724795 -65.3125 108.1171875 C-65.92996094 108.56900391 -66.54742187 109.02082031 -67.18359375 109.48632812 C-78.06780562 117.33441774 -78.06780562 117.33441774 -84.6875 116.3046875 C-86.5625 114.6796875 -86.5625 114.6796875 -87.6875 112.3046875 C-87.73215388 110.30518605 -87.73680008 108.30407978 -87.6875 106.3046875 C-88.42355469 106.93117188 -89.15960938 107.55765625 -89.91796875 108.203125 C-90.89378906 109.02039063 -91.86960938 109.83765625 -92.875 110.6796875 C-93.83792969 111.49179687 -94.80085938 112.30390625 -95.79296875 113.140625 C-100.25987864 116.48025804 -104.08465716 118.0890855 -109.6875 117.3046875 C-112.2569534 115.91117346 -114.59242973 114.35017031 -116.6875 112.3046875 C-116.6875 111.6446875 -116.6875 110.9846875 -116.6875 110.3046875 C-120.31231489 112.06217351 -122.57673874 114.20126239 -125.125 117.2421875 C-128.06526589 120.72054127 -130.68686681 123.12252394 -134.6875 125.3046875 C-135.6775 125.3046875 -136.6675 125.3046875 -137.6875 125.3046875 C-138.88048704 109.1993624 -135.5069558 93.88437439 -132.10858154 78.24365234 C-131.70059931 76.36500622 -131.29772416 74.48525325 -130.89501953 72.60546875 C-123.10958474 36.52154154 -123.10958474 36.52154154 -117.1875 31.9296875 C-114.24537631 30.5637015 -111.90400366 29.59709692 -108.6875 29.3046875 C-109.98309334 35.3816586 -111.45702149 41.38208813 -113.125 47.3671875 C-113.32931641 48.11806641 -113.53363281 48.86894531 -113.74414062 49.64257812 C-114.92017533 53.8814322 -116.28374998 57.97026563 -117.86401367 62.07348633 C-123.52392485 77.40877487 -127.745389 93.23921297 -130.6875 109.3046875 C-127.3981058 108.20822277 -126.34981699 107.08421229 -124.49609375 104.21875 C-123.5251278 101.92032818 -123.59665068 100.22882797 -123.625 97.7421875 C-123.21509763 90.40825853 -117.70989174 85.86311373 -112.97021484 80.75097656 C-111.37006373 78.94677116 -110.05111827 77.01979768 -108.75 74.9921875 C-108.069375 74.1053125 -107.38875 73.2184375 -106.6875 72.3046875 C-105.3675 72.3046875 -104.0475 72.3046875 -102.6875 72.3046875 C-102.80843491 77.62582357 -104.43088707 80.78046594 -107.25 85.3046875 C-111.01504368 91.37629471 -111.01504368 91.37629471 -110.6875 98.3046875 C-109.07179965 101.7003967 -107.30525287 104.59152678 -104.6875 107.3046875 C-101.64256426 108.47156927 -101.64256426 108.47156927 -98.6875 107.3046875 C-96.06203562 105.35107328 -96.06203562 105.35107328 -93.6875 102.3046875 C-93.19894531 101.73105469 -92.71039063 101.15742188 -92.20703125 100.56640625 C-87.46725817 94.76834655 -83.49037055 88.48604105 -79.50732422 82.15722656 C-79.05631348 81.4453418 -78.60530273 80.73345703 -78.140625 80 C-77.74004883 79.36078613 -77.33947266 78.72157227 -76.92675781 78.06298828 C-75.63556701 76.23100322 -74.40945356 74.74292871 -72.6875 73.3046875 C-69.59248792 73.05203345 -67.48620027 72.90533737 -64.6875 74.3046875 C-65.25225577 78.64303866 -66.34746395 82.09647041 -68.1875 86.0546875 C-70.55724461 91.51807564 -71.54314042 96.37282106 -71.6875 102.3046875 C-68.30367565 102.02309986 -66.27566723 101.84806444 -63.73828125 99.50390625 C-58.76767293 92.32165647 -54.54083501 84.8422945 -50.45629883 77.1237793 C-50.0105249 76.2862915 -49.56475098 75.44880371 -49.10546875 74.5859375 C-48.71125732 73.83376953 -48.3170459 73.08160156 -47.91088867 72.30664062 C-46.63139017 70.21286938 -45.70161277 68.72300174 -43.6875 67.3046875 C-42.0375 67.6346875 -40.3875 67.9646875 -38.6875 68.3046875 C-38.1925 74.2446875 -38.1925 74.2446875 -37.6875 80.3046875 C-31.86440411 67.08915073 -26.58492471 53.88688303 -22.74609375 39.94921875 C-11.52182404 1.30625331 -11.52182404 1.30625331 0 0 Z " fill="#F5F8FA" transform="translate(301.6875,212.6953125)"/>
<path d="M0 0 C3.81400972 6.42675653 4.52964107 11.10026703 4.25 18.5 C4.23195313 19.4178125 4.21390625 20.335625 4.1953125 21.28125 C4.14863102 23.52196092 4.08318522 25.76039799 4 28 C4.99 28 5.98 28 7 28 C7.23460937 27.45859375 7.46921875 26.9171875 7.7109375 26.359375 C9.3583644 23.34408456 11.42653344 20.88815988 13.625 18.25 C14.85089844 16.77273437 14.85089844 16.77273437 16.1015625 15.265625 C16.72804688 14.51796875 17.35453125 13.7703125 18 13 C18.9617696 15.54517076 19.1051819 16.7072768 18.171875 19.3046875 C11.35999274 31.61847466 1.83729873 45.10846751 -10 53 C-12.95692534 52.85215373 -14.49297715 52.43459102 -16.75 50.5 C-18.5955287 46.8089426 -18.74722936 43.07919514 -19 39 C-18.00097656 38.51789063 -17.00195312 38.03578125 -15.97265625 37.5390625 C-14.66911549 36.90135911 -13.36573849 36.26332089 -12.0625 35.625 C-11.40314453 35.30789063 -10.74378906 34.99078125 -10.06445312 34.6640625 C-6.38695193 33.04522631 -6.38695193 33.04522631 -4 30 C-3.58084045 24.99426773 -3.3676284 20.46595235 -5.375 15.8125 C-5.91125 15.214375 -6.4475 14.61625 -7 14 C-7.66 14 -8.32 14 -9 14 C-10.29360722 15.70804572 -10.29360722 15.70804572 -11.546875 17.96875 C-12.30919434 19.27271729 -12.30919434 19.27271729 -13.08691406 20.60302734 C-13.63573242 21.55902832 -14.18455078 22.5150293 -14.75 23.5 C-15.32202148 24.48307129 -15.89404297 25.46614258 -16.48339844 26.47900391 C-17.70283199 28.57575399 -18.91920598 30.6742859 -20.1328125 32.77441406 C-22.55889427 36.9654957 -25.01035755 41.14147074 -27.46118164 45.31811523 C-29.242303 48.36184671 -31.01097292 51.41253315 -32.77734375 54.46484375 C-34.66933832 57.7320304 -36.58619027 60.97701651 -38.56640625 64.19140625 C-43.90855472 73.01042472 -47.33076051 82.09200194 -50.68994141 91.83129883 C-54.58740453 103.0055629 -59.17459499 114.76295532 -68 123 C-70.67578125 123.6640625 -70.67578125 123.6640625 -73 124 C-73.6998066 114.35822018 -72.37347869 107.57834134 -68 99 C-67.69465332 98.38801758 -67.38930664 97.77603516 -67.07470703 97.14550781 C-60.90127991 84.82333493 -60.90127991 84.82333493 -56.75 80.0625 C-50.76540861 72.62660443 -49.65787587 60.2102622 -49 51 C-49.66 51 -50.32 51 -51 51 C-51 51.66 -51 52.32 -51 53 C-52.64453125 54.47265625 -52.64453125 54.47265625 -54.8125 56.0625 C-55.52019531 56.58972656 -56.22789062 57.11695313 -56.95703125 57.66015625 C-60.44137313 59.94529825 -62.86243802 59.99850404 -66.875 59.6875 C-70.54589953 59.57753203 -70.54589953 59.57753203 -73.66015625 61.26171875 C-74.85966691 62.77669704 -75.93557884 64.38724067 -77 66 C-80.24153166 68.1610211 -81.23692901 68.64247553 -85 68 C-87.1875 65.625 -87.1875 65.625 -89 63 C-89.66 62.34 -90.32 61.68 -91 61 C-91.88751953 61.81404297 -91.88751953 61.81404297 -92.79296875 62.64453125 C-93.97826172 63.71767578 -93.97826172 63.71767578 -95.1875 64.8125 C-95.96480469 65.52019531 -96.74210937 66.22789062 -97.54296875 66.95703125 C-100.71811049 69.59709346 -103.48600948 71.78371564 -107.625 72.375 C-110.55624195 71.91217232 -111.24505118 71.36818378 -113 69 C-114.76176066 56.68494754 -111.14191506 45.91563555 -104 36 C-100.76356867 32.21015292 -97.66924828 28.92209832 -93 27 C-86.66666667 26.55555556 -86.66666667 26.55555556 -83 29 C-83 31.25 -83 31.25 -84 34 C-85.63671875 34.94140625 -85.63671875 34.94140625 -87.6875 35.8125 C-92.74437025 38.0650236 -95.14429529 41.36477603 -98 46 C-98.40347656 46.65355469 -98.80695313 47.30710937 -99.22265625 47.98046875 C-101.94909199 52.87632648 -102.74237629 57.43532783 -103 63 C-92.91399721 58.41545328 -88.42338244 46.4517868 -84 37 C-81.69 37.33 -79.38 37.66 -77 38 C-77.09087891 38.87398438 -77.09087891 38.87398438 -77.18359375 39.765625 C-77.87227433 46.50409957 -78.45477619 53.24850516 -79 60 C-76.54775306 59.89386164 -76.54775306 59.89386164 -74 59 C-71.76395941 55.27326569 -71.7502656 51.64366631 -71.625 47.375 C-70.867992 35.08324302 -66.02497675 23.45217256 -57 14.875 C-54.40001173 12.78015231 -53.13884722 12.02994744 -49.8125 11.3125 C-45.55254646 12.35382198 -43.03350018 14.3759283 -40.6875 18.0625 C-40 20 -40 20 -40 23 C-40.58007812 22.99097656 -41.16015625 22.98195312 -41.7578125 22.97265625 C-45.21069438 23.10370622 -47.96782597 23.22643166 -50.79296875 25.34375 C-52.38653238 27.14623843 -53.7050218 28.97290647 -55 31 C-55.62068359 31.91845703 -55.62068359 31.91845703 -56.25390625 32.85546875 C-59.54497524 38.41703133 -59.41850054 43.6759918 -59 50 C-54.27543223 48.65012349 -51.59875001 46.0571631 -49 42 C-47.50946119 38.8018294 -46.42076971 35.47794199 -45.328125 32.12695312 C-44.625 30.16796875 -44.625 30.16796875 -43 27 C-40.5 25.92578125 -40.5 25.92578125 -38 26 C-37.01 26.66 -36.02 27.32 -35 28 C-35.7963107 35.69767006 -36.87821267 43.34352921 -38 51 C-34.4199248 48.6132832 -33.33575528 46.07058429 -31.5625 42.3125 C-30.85851044 40.868942 -30.1526635 39.42628885 -29.4453125 37.984375 C-29.05891602 37.19353516 -28.67251953 36.40269531 -28.27441406 35.58789062 C-25.87763669 30.72087143 -23.41624688 25.88818275 -20.9375 21.0625 C-20.21445679 19.62547729 -20.21445679 19.62547729 -19.47680664 18.15942383 C-10.00354031 -0.21746827 -10.00354031 -0.21746827 0 0 Z " fill="#F4F7FA" transform="translate(417,233)"/>
<path d="M0 0 C-0.39611961 1.96259262 -0.81761694 3.92007661 -1.25 5.875 C-1.48203125 6.96554688 -1.7140625 8.05609375 -1.953125 9.1796875 C-3 12 -3 12 -4.78686523 13.14550781 C-7.11590968 14.04475277 -8.9711511 14.33634446 -11.45703125 14.4921875 C-12.74420044 14.58669189 -12.74420044 14.58669189 -14.05737305 14.68310547 C-15.42116089 14.77809326 -15.42116089 14.77809326 -16.8125 14.875 C-25.95211664 15.63106769 -34.25456758 17.13420534 -43 20 C-43.93199219 20.29777344 -44.86398438 20.59554687 -45.82421875 20.90234375 C-52.01868084 23.11261889 -59.933654 26.86730801 -63 33 C-63.50070321 36.37357334 -63.50070321 36.37357334 -63 40 C-59.64556082 43.89189076 -55.88652801 46.57811466 -51.5625 49.3125 C-50.95776855 49.69712402 -50.35303711 50.08174805 -49.72998047 50.47802734 C-45.44115731 53.17806921 -41.05630516 55.66864643 -36.625 58.125 C-29.40869757 62.19884974 -22.76700709 66.38773939 -19 74 C-18.05186745 80.82283616 -18.57833811 86.955064 -22 93 C-22.36738281 93.66 -22.73476562 94.32 -23.11328125 95 C-37.98299698 119.5635422 -68.40648319 133.43406922 -95.2421875 140.1015625 C-99.93456171 141.14539626 -104.18465136 142 -109 142 C-107.80781638 136.16384531 -105.30916302 131.13789263 -101 127 C-97.26795756 126.08162044 -93.94530816 126.06307844 -90.10546875 126.08203125 C-70.79669346 126.14195345 -48.62470516 115.28014346 -35 102.1484375 C-30.95978015 97.80835759 -28.81897793 94.10340035 -28.3125 88.0625 C-28.69341363 81.98726073 -31.61619782 78.98687557 -36 75 C-39.67747934 72.39964708 -43.52295348 70.16035825 -47.4375 67.9375 C-68.14835994 56.05115107 -68.14835994 56.05115107 -71 46 C-71.97530654 40.22515865 -71.74839489 35.45874716 -68.6875 30.375 C-60.67217966 19.94206564 -49.69818139 14.29813582 -38 9 C-37.14921875 8.60039062 -36.2984375 8.20078125 -35.421875 7.7890625 C-29.94024542 5.39324537 -24.19481637 3.8331651 -18.4375 2.25 C-17.24966919 1.91512573 -17.24966919 1.91512573 -16.0378418 1.57348633 C-10.54768667 0.12679088 -5.67600867 -0.20413218 0 0 Z " fill="#F2F6F9" transform="translate(182,222)"/>
<path d="M0 0 C0 0.66 0 1.32 0 2 C-1.04172363 2.41511841 -1.04172363 2.41511841 -2.10449219 2.83862305 C-5.32004283 4.12062776 -8.53502284 5.40405782 -11.75 6.6875 C-13.38775391 7.34008789 -13.38775391 7.34008789 -15.05859375 8.00585938 C-18.37514738 9.33051837 -21.6885694 10.66258742 -25 12 C-26.01626465 12.41032471 -27.0325293 12.82064941 -28.07958984 13.2434082 C-36.29848199 16.61080573 -44.25897952 20.43145103 -52.234375 24.33398438 C-53.21148437 24.80771484 -54.18859375 25.28144531 -55.1953125 25.76953125 C-56.07203613 26.19854736 -56.94875977 26.62756348 -57.85205078 27.06958008 C-60 28 -60 28 -62 28 C-62.49799544 23.26904334 -62.6548185 20.17256475 -59.6875 16.3125 C-52.68030652 9.33597951 -42.40752841 7.01452412 -33.0625 4.8125 C-32.06798828 4.56564453 -31.07347656 4.31878906 -30.04882812 4.06445312 C-20.06507065 1.63807007 -10.30320971 -0.34344032 0 0 Z " fill="#F1F5F9" transform="translate(347,312)"/>
<path d="M0 0 C2.47771682 4.95543364 1.52919468 11.85031799 0.24609375 17.0625 C-1.43367002 21.91075936 -3.13094388 26.48267625 -7 30 C-9.6875 30.875 -9.6875 30.875 -12 31 C-14.45005666 28.54994334 -13.42928462 21.81030732 -13.46411133 18.37524414 C-13.36554725 12.33093026 -12.51491712 8.29361434 -8.60546875 3.49609375 C-5.53671117 0.63639994 -4.2933242 0 0 0 Z " fill="#075495" transform="translate(292,274)"/>
<path d="M0 0 C9 0 9 0 11.5625 1 C13.95372736 4.32692502 13.44721912 6.97502788 13 11 C10 13 10 13 7 13 C7.5053125 13.62648438 8.010625 14.25296875 8.53125 14.8984375 C9.1809375 15.71570313 9.830625 16.53296875 10.5 17.375 C11.1496875 18.18710937 11.799375 18.99921875 12.46875 19.8359375 C14 22 14 22 14 24 C11.1157546 23.65514457 10.1792182 23.21744593 8.296875 20.93359375 C7.78640625 20.10988281 7.2759375 19.28617187 6.75 18.4375 C6.22921875 17.61121094 5.7084375 16.78492188 5.171875 15.93359375 C4.78515625 15.29550781 4.3984375 14.65742188 4 14 C3.67 17.3 3.34 20.6 3 24 C2.01 24 1.02 24 0 24 C0 16.08 0 8.16 0 0 Z " fill="#A8C3D9" transform="translate(295,362)"/>
<path d="M0 0 C3.3 0 6.6 0 10 0 C13 3 13 3 13.4375 6 C13 9 13 9 11.125 10.875 C9 12 9 12 7 12 C7.433125 12.62648438 7.86625 13.25296875 8.3125 13.8984375 C8.869375 14.71570313 9.42625 15.53296875 10 16.375 C10.556875 17.18710937 11.11375 17.99921875 11.6875 18.8359375 C13 21 13 21 13 23 C8.55092795 21.51697598 6.25420608 17.91714499 4 14 C4 13.34 4 12.68 4 12 C3.34 12 2.68 12 2 12 C2 15.3 2 18.6 2 22 C1.34 22 0.68 22 0 22 C0 14.74 0 7.48 0 0 Z " fill="#E1EAF2" transform="translate(272,363)"/>
<path d="M0 0 C0.66 0 1.32 0 2 0 C3.50585523 3.45581315 5.00368289 6.91504753 6.5 10.375 C7.14388672 11.85226562 7.14388672 11.85226562 7.80078125 13.359375 C8.40986328 14.77089844 8.40986328 14.77089844 9.03125 16.2109375 C9.40830078 17.08024902 9.78535156 17.94956055 10.17382812 18.84521484 C11 21 11 21 11 23 C8 22 8 22 6 19 C6 17.68 6 16.36 6 15 C2.7 15 -0.6 15 -4 15 C-4.66 17.64 -5.32 20.28 -6 23 C-6.99 23 -7.98 23 -9 23 C-8.33673121 17.8307147 -6.08075343 13.37748635 -3.9375 8.6875 C-3.37192383 7.43356445 -3.37192383 7.43356445 -2.79492188 6.15429688 C-1.86788193 4.10072738 -0.93613122 2.04943713 0 0 Z " fill="#D6E3ED" transform="translate(252,363)"/>
<path d="M0 0 C4.54182253 4.54182253 8.75929224 9.18428102 13 14 C13.33 9.38 13.66 4.76 14 0 C14.99 0 15.98 0 17 0 C17 7.26 17 14.52 17 22 C16.34 22 15.68 22 15 22 C13.64626036 20.49096123 12.36556599 18.91587302 11.125 17.3125 C10.10792969 16.00732422 10.10792969 16.00732422 9.0703125 14.67578125 C8.04550781 13.35126953 8.04550781 13.35126953 7 12 C5.68 10.35 4.36 8.7 3 7 C2.67 11.95 2.34 16.9 2 22 C1.34 22 0.68 22 0 22 C0 14.74 0 7.48 0 0 Z " fill="#C7D8E7" transform="translate(399,363)"/>
<path d="M0 0 C0.66 0 1.32 0 2 0 C1.16574551 10.51160651 -2.09449504 18.71250247 -7 28 C-7.66 28 -8.32 28 -9 28 C-8.77743274 17.72143928 -5.80839401 8.5417559 0 0 Z " fill="#1C629E" transform="translate(294,238)"/>
<path d="M0 0 C3.96 0 7.92 0 12 0 C12 0.66 12 1.32 12 2 C8.7 2 5.4 2 2 2 C2 4.31 2 6.62 2 9 C5.3 9 8.6 9 12 9 C12 9.66 12 10.32 12 11 C8.7 11 5.4 11 2 11 C2 13.97 2 16.94 2 20 C5.3 20 8.6 20 12 20 C12 20.99 12 21.98 12 23 C8.04 23 4.08 23 0 23 C0 15.41 0 7.82 0 0 Z " fill="#E8EFF4" transform="translate(515,363)"/>
<path d="M0 0 C3.96 0 7.92 0 12 0 C12 0.66 12 1.32 12 2 C8.7 2 5.4 2 2 2 C2 4.31 2 6.62 2 9 C5.3 9 8.6 9 12 9 C12 9.66 12 10.32 12 11 C8.7 11 5.4 11 2 11 C2 13.97 2 16.94 2 20 C5.3 20 8.6 20 12 20 C12 20.99 12 21.98 12 23 C8.04 23 4.08 23 0 23 C0 15.41 0 7.82 0 0 Z " fill="#D7E3ED" transform="translate(357,363)"/>
<path d="M0 0 C2.5625 0.375 2.5625 0.375 4.375 2.375 C4.766875 3.035 5.15875 3.695 5.5625 4.375 C2.72282769 4.375 0.32514289 3.97232819 -2.4375 3.375 C-1.47531394 7.51240007 -0.7287332 9.13725862 2.625 11.875 C5.5625 14.375 5.5625 14.375 6.6875 17.4375 C6.5625 20.375 6.5625 20.375 4.9375 22.75 C2.13705503 24.66609393 0.8850955 24.97136329 -2.4375 24.375 C-4.25 23 -4.25 23 -5.4375 21.375 C-5.4375 20.715 -5.4375 20.055 -5.4375 19.375 C-4.57125 19.9009375 -4.57125 19.9009375 -3.6875 20.4375 C-1.07948224 21.52417407 -0.04332371 21.30565133 2.5625 20.375 C2.40442462 17.68771853 2.08379131 15.90355163 0.16015625 13.953125 C-0.38769531 13.47359375 -0.93554688 12.9940625 -1.5 12.5 C-4.2189483 9.98317975 -4.41065102 9.57636738 -4.9375 5.625 C-4.35114776 1.81371042 -3.89638802 0.59944431 0 0 Z " fill="#D2E0EB" transform="translate(438.4375,361.625)"/>
<path d="M0 0 C0.99 0.33 1.98 0.66 3 1 C4.3515625 3.90625 4.3515625 3.90625 5.625 7.5 C6.80118796 11.54260343 6.80118796 11.54260343 9 15 C10.98 10.05 12.96 5.1 15 0 C15.99 0.33 16.98 0.66 18 1 C12.9977221 15.78132118 12.9977221 15.78132118 9 22 C6.92195591 19.92195591 6.31672853 18.63400605 5.2734375 15.9375 C4.9640625 15.14085937 4.6546875 14.34421875 4.3359375 13.5234375 C4.01882813 12.69070313 3.70171875 11.85796875 3.375 11 C3.05015625 10.16726563 2.7253125 9.33453125 2.390625 8.4765625 C0 2.26897321 0 2.26897321 0 0 Z " fill="#DAE5EF" transform="translate(330,363)"/>
<path d="M0 0 C3.75376152 1.25125384 4.24073289 2.5652404 6 6 C6 6.66 6 7.32 6 8 C6.66 8 7.32 8 8 8 C8.28875 7.236875 8.5775 6.47375 8.875 5.6875 C10 3 10 3 12 0 C12.66 0 13.32 0 14 0 C12.96942355 2.69535379 11.91711075 5.13925394 10.4375 7.625 C8.43360767 12.32979068 8.26149263 16.93245323 8 22 C7.34 22 6.68 22 6 22 C5.98582031 21.31035156 5.97164063 20.62070312 5.95703125 19.91015625 C5.63312638 13.52835482 4.50448985 9.17558892 1.05859375 3.77734375 C0 2 0 2 0 0 Z " fill="#DDE8F0" transform="translate(472,363)"/>
<path d="M0 0 C0.99 0 1.98 0 3 0 C3 7.92 3 15.84 3 24 C2.01 24 1.02 24 0 24 C0 16.08 0 8.16 0 0 Z " fill="#ADC6DB" transform="translate(386,362)"/>
<path d="M0 0 C0.99 0 1.98 0 3 0 C3 7.59 3 15.18 3 23 C2.01 23 1.02 23 0 23 C0 15.41 0 7.82 0 0 Z " fill="#B1C9DE" transform="translate(318,363)"/>
<path d="M0 0 C3.375 -0.125 3.375 -0.125 7 0 C7.66 0.66 8.32 1.32 9 2 C8.44444444 6.55555556 8.44444444 6.55555556 7 8 C4.66702567 8.04092937 2.33294775 8.04241723 0 8 C0 5.36 0 2.72 0 0 Z " fill="#19609D" transform="translate(274,365)"/>
<path d="M0 0 C3.96 0 7.92 0 12 0 C12 0.66 12 1.32 12 2 C10.35 2 8.7 2 7 2 C7 8.6 7 15.2 7 22 C6.34 22 5.68 22 5 22 C5 15.4 5 8.8 5 2 C3.35 2 1.7 2 0 2 C0 1.34 0 0.68 0 0 Z " fill="#DFE9F1" transform="translate(452,363)"/>
<path d="M0 0 C0.66 0 1.32 0 2 0 C2 6.6 2 13.2 2 20 C4.64 20 7.28 20 10 20 C10 20.66 10 21.32 10 22 C6.7 22 3.4 22 0 22 C0 14.74 0 7.48 0 0 Z " fill="#E1EAF1" transform="translate(496,363)"/>
<path d="M0 0 C5 5 5 5 5 8 C4.34 7.67 3.68 7.34 3 7 C2.67 11.95 2.34 16.9 2 22 C1.34 22 0.68 22 0 22 C0 14.74 0 7.48 0 0 Z " fill="#EBF0F5" transform="translate(399,363)"/>
<path d="M0 0 C2.33294775 -0.04241723 4.66702567 -0.04092937 7 0 C8 1 8 1 8.125 3.5 C8 6 8 6 7 7 C4.66702567 7.04092937 2.33294775 7.04241723 0 7 C0 4.69 0 2.38 0 0 Z " fill="#095596" transform="translate(298,365)"/>
<path d="M0 0 C2.64 0 5.28 0 8 0 C8 0.33 8 0.66 8 1 C6.02 1 4.04 1 2 1 C2 3.97 2 6.94 2 10 C2.66 10.33 3.32 10.66 4 11 C3.34 11 2.68 11 2 11 C2 14.63 2 18.26 2 22 C1.34 22 0.68 22 0 22 C0 14.74 0 7.48 0 0 Z " fill="#EEF3F7" transform="translate(272,363)"/>
<path d="M0 0 C3.3 0 6.6 0 10 0 C12 2 12 2 12.125 5.125 C12.08375 6.07375 12.0425 7.0225 12 8 C11.690625 7.360625 11.38125 6.72125 11.0625 6.0625 C10.1654837 4.06389179 10.1654837 4.06389179 9 3 C7.65252916 2.76924918 6.29622435 2.58846937 4.9375 2.4375 C3.638125 2.293125 2.33875 2.14875 1 2 C1 4.64 1 7.28 1 10 C1.66 10.33 2.32 10.66 3 11 C2.34 11 1.68 11 1 11 C1 14.63 1 18.26 1 22 C0.67 22 0.34 22 0 22 C0 14.74 0 7.48 0 0 Z " fill="#FDFEFE" transform="translate(296,363)"/>
<path d="M0 0 C0.33 0 0.66 0 1 0 C1 5.61 1 11.22 1 17 C0.01 17.33 -0.98 17.66 -2 18 C-3.17560179 16.73742767 -4.34022865 15.46462916 -5.5 14.1875 C-6.1496875 13.47980469 -6.799375 12.77210938 -7.46875 12.04296875 C-9 10 -9 10 -9 7 C-4.79509714 8.65192612 -4.19017065 10.01228669 -1 14 C-0.67 9.38 -0.34 4.76 0 0 Z " fill="#BCD0E2" transform="translate(413,363)"/>
<path d="M0 0 C0.67119549 1.4562545 1.33681807 2.91507867 2 4.375 C2.556875 5.59316406 2.556875 5.59316406 3.125 6.8359375 C4 9 4 9 4 11 C1 10 1 10 -1 7 C-1 5.68 -1 4.36 -1 3 C-2.918125 3.061875 -2.918125 3.061875 -4.875 3.125 C-7.0546875 3.1953125 -7.0546875 3.1953125 -9 3 C-9.66 2.34 -10.32 1.68 -11 1 C-9.54182203 0.83197949 -8.0834516 0.66562857 -6.625 0.5 C-5.81289062 0.4071875 -5.00078125 0.314375 -4.1640625 0.21875 C-2 0 -2 0 0 0 Z " fill="#EFF4F8" transform="translate(259,375)"/>
<path d="M0 0 C0.33 0 0.66 0 1 0 C1 2.97 1 5.94 1 9 C4.3 9 7.6 9 11 9 C11 9.99 11 10.98 11 12 C7.04 12 3.08 12 -1 12 C-0.67 8.04 -0.34 4.08 0 0 Z " fill="#C6D8E6" transform="translate(516,374)"/>
<path d="M0 0 C0.99 0.33 1.98 0.66 3 1 C1.35 5.62 -0.3 10.24 -2 15 C-2.99 15 -3.98 15 -5 15 C-4.37321829 11.33827525 -3.35548154 8.1181005 -1.9375 4.6875 C-1.39416016 3.36298828 -1.39416016 3.36298828 -0.83984375 2.01171875 C-0.56269531 1.34785156 -0.28554688 0.68398438 0 0 Z " fill="#C3D6E5" transform="translate(345,363)"/>
<path d="M0 0 C0.66 0 1.32 0 2 0 C3.25664978 2.90600261 4 4.79604584 4 8 C2.02 8 0.04 8 -2 8 C-1.125 2.25 -1.125 2.25 0 0 Z " fill="#2F6FA6" transform="translate(252,368)"/>
<path d="M0 0 C4.02550319 1.3418344 4.88285636 3.4227573 7 7 C7 7.66 7 8.32 7 9 C3.64564078 7.61198929 1.88709697 6.11371 0 3 C0 2.01 0 1.02 0 0 Z " fill="#CCDBE9" transform="translate(278,377)"/>
<path d="M0 0 C1.125 1.625 1.125 1.625 2 4 C1.125 7.25 1.125 7.25 0 10 C-0.99 10 -1.98 10 -3 10 C-2.39009109 6.44219804 -1.4216319 3.3171411 0 0 Z " fill="#BCD0E2" transform="translate(246,376)"/>
<path d="M0 0 C0.66 0.66 1.32 1.32 2 2 C1.98252112 4.59269983 1.86231408 7.0525154 1.625 9.625 C1.56828125 10.33140625 1.5115625 11.0378125 1.453125 11.765625 C1.31159079 13.51121361 1.15702613 15.25573673 1 17 C0.67 17 0.34 17 0 17 C-0.19493195 14.72979256 -0.38070418 12.45879711 -0.5625 10.1875 C-0.66691406 8.92292969 -0.77132813 7.65835937 -0.87890625 6.35546875 C-1 3 -1 3 0 0 Z " fill="#588CB7" transform="translate(303,284)"/>
<path d="M0 0 C2.6855594 2.6855594 3.06049974 5.37621328 4 9 C1 8 1 8 -1 5 C-0.625 2.3125 -0.625 2.3125 0 0 Z " fill="#BACFE1" transform="translate(259,377)"/>
<path d="M0 0 C1 1 1 1 1.0625 4.0625 C1.041875 5.031875 1.02125 6.00125 1 7 C0.690625 6.360625 0.38125 5.72125 0.0625 5.0625 C-0.8345163 3.06389179 -0.8345163 3.06389179 -2 2 C-4.32817964 1.63239269 -6.6618385 1.29758419 -9 1 C-9 0.67 -9 0.34 -9 0 C-5.63861721 -0.8403457 -3.29612199 -1.17718642 0 0 Z " fill="#E5EDF3" transform="translate(307,364)"/>
<path d="M0 0 C0.66 0.33 1.32 0.66 2 1 C-0.64 3.64 -3.28 6.28 -6 9 C-6 5.06368636 -4.57142871 3.87394974 -2 1 C-1.34 0.67 -0.68 0.34 0 0 Z " fill="#D5E2EC" transform="translate(411,233)"/>
<path d="M0 0 C2.97 0.99 5.94 1.98 9 3 C8.67 3.66 8.34 4.32 8 5 C3.48279689 5.36625971 3.48279689 5.36625971 1.1875 3.625 C0 2 0 2 0 0 Z " fill="#E4ECF3" transform="translate(433,381)"/>
<path d="M0 0 C0.33 1.32 0.66 2.64 1 4 C-1.22189824 6.22189824 -3.08482708 6.92598892 -6 8 C-4.02 5.36 -2.04 2.72 0 0 Z " fill="#C2D5E5" transform="translate(435,246)"/>
<path d="M0 0 C3 1 3 1 4.25 2.8125 C5.11637742 5.33943414 4.88492145 6.52221994 4 9 C0 2.25 0 2.25 0 0 Z " fill="#DBE6EF" transform="translate(472,363)"/>
<path d="M0 0 C2.5 2.3125 2.5 2.3125 5 5 C5 5.99 5 6.98 5 8 C2.21611025 6.29374499 1.14615794 5.52373261 0.25 2.3125 C0.1675 1.549375 0.085 0.78625 0 0 Z " fill="#DDE7F0" transform="translate(399,363)"/>
</svg>
