<svg xmlns="http://www.w3.org/2000/svg" width="481.04" height="26.79" viewBox="0 0 481.04 26.79"><title>Tommy Hilfiger logo - Brandlogos.net</title><path d="M499.61,505.43h20v13.07h-20Z" transform="translate(-271.48 -498.6)" style="fill:#cc0c2f"/><path d="M479.59,505.48h20v13h-20Z" transform="translate(-271.48 -498.6)" style="fill:#fff"/><path d="M479.59,499h40.07v6.5H479.59Zm0,19.52h40.07V525H479.59ZM293.27,502.31h-9V525h-3.77v-22.7h-9V499h21.74Zm27.7-3.7a13.38,13.38,0,1,1,1.14,26.74q-.57,0-1.14,0a13.38,13.38,0,1,1-1.14-26.74Q320.4,498.59,321,498.62Zm0,23.31a9.78,9.78,0,0,0,10.16-9.39q0-.27,0-.54a9.66,9.66,0,0,0-9.35-10q-.41,0-.82,0a9.66,9.66,0,0,0-10.14,9.16q0,.39,0,.79a9.66,9.66,0,0,0,9.38,9.94Q320.59,521.94,321,521.92ZM376.86,525h-3.74V504.73l-8,10.1h-.6l-8.12-10.1V525h-3.82V499h3.53l8.65,10.7,8.65-10.7h3.48Zm45.48,0H418.6V504.73l-8,10.1h-.72l-8-10.1V525H398V499h3.53l8.65,10.7,8.67-10.7h3.48ZM457.15,499h4.52L452,511.25V525h-3.77V511.22L438.57,499h4.52l7,9ZM562.94,525H559.2V513.66H544.7V525H541V499h3.74v11.35H559.2V499h3.74Zm19.27,0h-3.74V499h3.74Zm19.11-3.36h11.76V525H597.58V499h3.74Zm36.42-19.35H627.57v7.25h10.17v3.36H627.57V525h-3.74V499h13.91ZM654.6,525h-3.74V499h3.74Zm35.65-1.79a22.82,22.82,0,0,1-9.93,2.15,13.16,13.16,0,0,1-13.85-12.44q0-.38,0-.77a13.5,13.5,0,0,1,13.45-13.56h.47a21.21,21.21,0,0,1,9.27,2.22v3.77a19.32,19.32,0,0,0-9.27-2.56,10,10,0,0,0-.33,19.9q.42,0,.84,0a18.26,18.26,0,0,0,5.65-1v-5.34h-5v-3.36h8.74Zm29-20.92h-11v7.85H719v3.38H708.37v8.09h11.38V525H704.53V499h14.78ZM739,499c5.27,0,8.55,2.8,8.55,7.25a6.52,6.52,0,0,1-4.37,6.38,21.25,21.25,0,0,1,5.8,7.25c1.11,1.79,1.76,2.68,3.55,5.14H748l-3.43-5.34c-3.43-5.34-5-6-6.91-6H736.1V525h-3.74V499Zm-2.83,11.38h2.42c4,0,5.17-2.05,5.12-4.25s-1.5-3.94-5.12-3.94h-2.42Z" transform="translate(-271.48 -498.6)" style="fill:#00174f"/></svg>