<svg id="Layer_1" data-name="Layer 1" xmlns="http://www.w3.org/2000/svg" viewBox="0 0 432.56 324.48"><title>Under Armour logo - Brandlogos.net</title><g id="g3"><path id="path5" d="M572.37,217.82s-12.4-9.6-52.57-24.35c-35.24-13-62.17-16-62.17-16l.14,76.92c0,32.51-36.74,67-99.49,67h-1.8c-62.74,0-99.47-34.52-99.47-67l.12-76.92s-26.9,3-62.15,16c-40.16,14.75-52.57,24.35-52.57,24.35,3,61.69,98.81,112.52,215,112.55h0c116.14,0,212-50.85,215-112.55" transform="translate(-142.42 -177.52)"/><path id="path7" d="M572.42,390.56s-12.4,9.57-52.57,24.34c-35.27,13-62.17,15.94-62.17,15.94l.14-76.91c0-32.5-36.74-67-99.49-67l-.88,0h0l-.87,0c-62.75,0-99.48,34.51-99.48,67l.14,76.91s-26.91-3-62.17-15.94c-40.15-14.76-52.58-24.34-52.58-24.34,3-61.69,98.84-112.51,215-112.55h0c116.14,0,212,50.87,215,112.55" transform="translate(-142.42 -177.52)"/><path id="path9" d="M163.35,501.84c-9.79,0-10-7.45-10-10.33V477.93c0-.84-.05-1.93,1.69-1.93h5c1.66,0,1.56,1.14,1.56,1.93V491.5c0,1,.16,3.56,3.73,3.56h8.49c3.49,0,3.7-2.58,3.7-3.56V477.93c0-.79-.11-1.93,1.54-1.93h5.11c1.84,0,1.67,1.14,1.67,1.93V491.5c0,2.88-.19,10.33-10,10.33" transform="translate(-142.42 -177.52)"/><path id="path11" d="M210.25,500.18c-3.45-4.65-8.39-10.5-13.42-16.7V500c0,.73.18,1.82-1.55,1.82h-4.72c-1.7,0-1.51-1.09-1.51-1.82V477.9c0-.76-.07-1.9,1.51-1.9h9.2c2.6,0,6.31,5.22,8.73,8.7,1.89,2.61,5.34,6.58,7.67,9.57V477.9c0-.76-.1-1.9,1.62-1.9h5.13c1.63,0,1.54,1.14,1.54,1.9v23.93H215c-2,0-2.9.14-4.75-1.66" transform="translate(-142.42 -177.52)"/><path id="path13" d="M227.57,501.84V476h22.8c1.39,0,10.76-.19,10.76,9.65,0,10,1.07,16.15-10.57,16.15H238.27l-2.65-5.38v5.38m13.54-6.8c4.15,0,3.83-4,3.83-5.79,0-6.09-1.71-6.34-4.45-6.34h-13V495h13.63Z" transform="translate(-142.42 -177.52)"/><path id="path15" d="M270.05,476.19h21c1.77,0,1.54,1.17,1.54,3.32s.27,3.15-1.54,3.15H274.46c-.44,0-2-.22-2,1.33s-.29,2.2,1.37,2.2h14.69l2.37,4.7c.34.65.3,1.22-1,1.22h-15.2l-2.35-4.6v6.77c0,1.58,1.4,1.28,1.81,1.28h17.26c1.71,0,1.56,1.19,1.56,3.15s.15,3.26-1.56,3.26H269.6c-1.82,0-5.37-.57-5.37-6.26V481.52c0-1.49.77-5.33,5.82-5.33" transform="translate(-142.42 -177.52)"/><path id="path17" d="M298.28,476h23c3.09,0,7.57,0,7.57,8.3,0,5.44-1.16,5.71-3.63,7.4,4.15.71,3.59,6,3.59,8.76,0,1.39-.5,1.36-.91,1.36h-6.74c-1.41,0-1.07-2.23-1.07-3.4,0-3.15-1.77-3-2.46-3h-9.93c-1-1.66-2.8-5.36-2.8-5.36v10.71l-1.27,1.06h-6.79l-.68-.84V478.25a2.06,2.06,0,0,1,2.12-2.23m18.32,6.83H306.35c-1.71,0-1.63.57-1.63,1.09v4.62h10.54c5.11,0,5.11-1.28,5.11-2.61,0-2.66-.22-3.1-3.78-3.1" transform="translate(-142.42 -177.52)"/><path id="path19" d="M368.44,476.19c1.69,0,3.33.76,5.11,4.22,1.19,2.47,9.55,17.57,11.31,20.72V502h-8.7l-2.5-4.54H363.07l-2.29-5.19c-.65,1.06-4.15,7.7-5.34,9.73h-8.73v-.57c1.78-3.35,13.94-25.24,13.94-25.24m5.08,7.16-4.27,7.75.39.38h7.91l.39-.38-4-7.78-.4,0" transform="translate(-142.42 -177.52)"/><path id="path21" d="M390.38,476h23c3.07,0,7.56,0,7.56,8.3,0,5.44-1.14,5.71-3.62,7.4,4.16.71,3.59,6,3.59,8.76,0,1.39-.52,1.36-.92,1.36h-6.74c-1.41,0-1.06-2.23-1.06-3.4,0-3.15-1.77-3-2.45-3h-10c-1-1.66-2.8-5.36-2.8-5.36v10.71l-1.25,1.06h-6.8l-.68-.84V478.25a2.06,2.06,0,0,1,2.12-2.23m18.33,6.83H398.46c-1.71,0-1.63.57-1.63,1.09v4.62h10.55c5.08,0,5.08-1.28,5.08-2.61,0-2.66-.19-3.1-3.75-3.1" transform="translate(-142.42 -177.52)"/><path id="path23" d="M441,501.84c-1.71-3.21-6.47-12.07-9.68-17.89V500c0,.68.11,1.79-1.55,1.79h-4.65c-1.74,0-1.61-1.11-1.61-1.79V477.93c0-.79-.11-1.91,1.61-1.91h8c1.2,0,2.91-.27,4.81,3.56,1.44,3.07,4.49,9.46,6.61,12.84,2.12-3.37,5.25-9.76,6.69-12.84,1.88-3.83,3.54-3.56,4.9-3.56h8c1.63,0,1.44,1.12,1.44,1.91V500c0,.68.25,1.79-1.44,1.79h-4.7c-1.71,0-1.58-1.11-1.58-1.79v-16.1c-3.27,5.82-8,14.68-9.76,17.89" transform="translate(-142.42 -177.52)"/><path id="path25" d="M476,501.89c-7.61,0-7.29-8.16-7.29-13.49,0-4.84-.54-12.43,9-12.51h17c9.57,0,8.95,7.7,8.95,12.51,0,5.33.38,13.49-7.37,13.49m-4.92-6.64c3.86,0,3.73-4,3.73-6.66,0-2.42.57-6.17-4.46-6.17h-8.54c-5,0-4.41,3.75-4.41,6.17,0,2.67-.25,6.66,3.62,6.66Z" transform="translate(-142.42 -177.52)"/><path id="path27" d="M516.4,501.84c-9.76,0-10-7.45-10-10.33V477.93c0-.84-.05-1.93,1.69-1.93h5.06c1.66,0,1.55,1.14,1.55,1.93V491.5c0,1,.16,3.56,3.73,3.56H527c3.51,0,3.7-2.58,3.7-3.56V477.93c0-.79-.08-1.93,1.55-1.93h5.08c1.85,0,1.69,1.14,1.69,1.93V491.5c0,2.88-.16,10.33-10,10.33" transform="translate(-142.42 -177.52)"/><path id="path29" d="M544.41,476h23c3.07,0,7.56,0,7.56,8.3,0,5.44-1.17,5.71-3.64,7.4,4.16.71,3.62,6,3.62,8.76,0,1.39-.52,1.36-.93,1.36h-6.74c-1.39,0-1.06-2.23-1.06-3.4,0-3.15-1.8-3-2.47-3h-9.93c-.95-1.66-2.8-5.36-2.8-5.36v10.71l-1.28,1.06H543l-.68-.84V478.25a2.06,2.06,0,0,1,2.12-2.23m18.3,6.83H552.49c-1.71,0-1.63.57-1.63,1.09v4.62h10.55c5.09,0,5.09-1.28,5.09-2.61,0-2.66-.22-3.1-3.78-3.1" transform="translate(-142.42 -177.52)"/></g></svg>